<svg width="1200" height="675" viewBox="0 0 1200 675" fill="none" xmlns="http://www.w3.org/2000/svg">
  <defs>
    <linearGradient id="goldBar" x1="0" y1="0" x2="0" y2="1">
      <stop offset="0%" stop-color="#ffd86b"/>
      <stop offset="45%" stop-color="#f5b301"/>
      <stop offset="100%" stop-color="#a8730a"/>
    </linearGradient>
    <radialGradient id="goldGlow" cx="50%" cy="50%" r="50%">
      <stop offset="0%" stop-color="#ffd86b" stop-opacity="0.85"/>
      <stop offset="100%" stop-color="#f5b301" stop-opacity="0"/>
    </radialGradient>
  </defs>
  <rect width="1200" height="675" fill="#070b13"/>
  <circle cx="980" cy="135" r="240" fill="url(#goldGlow)" opacity="0.55"/>
  <circle cx="200" cy="555" r="260" fill="#1f5dd1" opacity="0.16"/>
  <rect x="110" y="100" width="980" height="475" rx="28" fill="#0d1428" stroke="#3a2c08" stroke-width="3"/>

  <!-- gold coin / bars stack -->
  <ellipse cx="970" cy="180" rx="80" ry="80" fill="url(#goldBar)"/>
  <ellipse cx="970" cy="180" rx="80" ry="80" fill="none" stroke="#a8730a" stroke-width="3"/>
  <text x="970" y="195" font-family='Georgia, "Times New Roman", serif' font-size="42" font-weight="700" fill="#7a4f00" text-anchor="middle">Au</text>

  <!-- annual report spine (left) -->
  <rect x="180" y="200" width="190" height="320" rx="10" fill="#131c30" stroke="#27365e" stroke-width="2"/>
  <rect x="180" y="200" width="36" height="320" fill="url(#goldBar)"/>
  <text x="275" y="260" font-family="Inter, sans-serif" font-size="22" font-weight="700" fill="#ffd44d" text-anchor="middle">2024</text>
  <text x="275" y="290" font-family="Inter, sans-serif" font-size="13" font-weight="500" fill="#94a3b8" text-anchor="middle">IGWT</text>
  <rect x="240" y="320" width="100" height="6" rx="3" fill="#475569"/>
  <rect x="240" y="334" width="90" height="6" rx="3" fill="#475569"/>
  <rect x="240" y="348" width="110" height="6" rx="3" fill="#475569"/>
  <rect x="240" y="362" width="80" height="6" rx="3" fill="#475569"/>
  <rect x="240" y="376" width="100" height="6" rx="3" fill="#475569"/>
  <rect x="240" y="390" width="70" height="6" rx="3" fill="#475569"/>

  <!-- 2025 spine -->
  <rect x="390" y="180" width="190" height="340" rx="10" fill="#17243f" stroke="#4f8cff" stroke-width="2"/>
  <rect x="390" y="180" width="36" height="340" fill="#4f8cff"/>
  <text x="485" y="240" font-family="Inter, sans-serif" font-size="22" font-weight="700" fill="#7da9ff" text-anchor="middle">2025</text>
  <text x="485" y="270" font-family="Inter, sans-serif" font-size="13" font-weight="500" fill="#94a3b8" text-anchor="middle">IGWT</text>
  <rect x="450" y="305" width="100" height="6" rx="3" fill="#4f5f82"/>
  <rect x="450" y="319" width="90" height="6" rx="3" fill="#4f5f82"/>
  <rect x="450" y="333" width="110" height="6" rx="3" fill="#4f5f82"/>
  <rect x="450" y="347" width="80" height="6" rx="3" fill="#4f5f82"/>
  <rect x="450" y="361" width="100" height="6" rx="3" fill="#4f5f82"/>
  <rect x="450" y="375" width="70" height="6" rx="3" fill="#4f5f82"/>
  <rect x="450" y="389" width="100" height="6" rx="3" fill="#4f5f82"/>
  <rect x="450" y="403" width="60" height="6" rx="3" fill="#4f5f82"/>

  <!-- 2026 spine (current) -->
  <rect x="600" y="160" width="200" height="360" rx="10" fill="#1a2310" stroke="#f5b301" stroke-width="2.5"/>
  <rect x="600" y="160" width="36" height="360" fill="url(#goldBar)"/>
  <text x="700" y="225" font-family="Inter, sans-serif" font-size="24" font-weight="800" fill="#ffd86b" text-anchor="middle">2026</text>
  <text x="700" y="255" font-family="Inter, sans-serif" font-size="13" font-weight="500" fill="#a8730a" text-anchor="middle">IGWT · new</text>
  <rect x="660" y="290" width="100" height="6" rx="3" fill="#7a4f00"/>
  <rect x="660" y="304" width="90" height="6" rx="3" fill="#7a4f00"/>
  <rect x="660" y="318" width="110" height="6" rx="3" fill="#7a4f00"/>
  <rect x="660" y="332" width="80" height="6" rx="3" fill="#7a4f00"/>
  <rect x="660" y="346" width="100" height="6" rx="3" fill="#7a4f00"/>
  <rect x="660" y="360" width="70" height="6" rx="3" fill="#7a4f00"/>
  <rect x="660" y="374" width="100" height="6" rx="3" fill="#7a4f00"/>
  <rect x="660" y="388" width="90" height="6" rx="3" fill="#7a4f00"/>
  <rect x="660" y="402" width="80" height="6" rx="3" fill="#7a4f00"/>
  <rect x="660" y="416" width="110" height="6" rx="3" fill="#7a4f00"/>

  <!-- markdown chapters -->
  <rect x="820" y="200" width="240" height="320" rx="10" fill="#131c30" stroke="#27365e" stroke-width="2"/>
  <text x="940" y="232" font-family="Inter, sans-serif" font-size="13" font-weight="600" fill="#7da9ff" text-anchor="middle">markdown /</text>
  <rect x="840" y="255" width="200" height="8" rx="3" fill="#7da9ff" opacity="0.85"/>
  <rect x="840" y="270" width="170" height="8" rx="3" fill="#475569"/>
  <rect x="840" y="290" width="200" height="8" rx="3" fill="#7da9ff" opacity="0.7"/>
  <rect x="840" y="305" width="160" height="8" rx="3" fill="#475569"/>
  <rect x="840" y="325" width="190" height="8" rx="3" fill="#7da9ff" opacity="0.55"/>
  <rect x="840" y="340" width="150" height="8" rx="3" fill="#475569"/>
  <rect x="840" y="360" width="200" height="8" rx="3" fill="#7da9ff" opacity="0.45"/>
  <rect x="840" y="375" width="140" height="8" rx="3" fill="#475569"/>
  <rect x="840" y="395" width="180" height="8" rx="3" fill="#7da9ff" opacity="0.4"/>
  <rect x="840" y="410" width="120" height="8" rx="3" fill="#475569"/>
  <rect x="840" y="430" width="200" height="8" rx="3" fill="#7da9ff" opacity="0.35"/>
  <rect x="840" y="445" width="110" height="8" rx="3" fill="#475569"/>
  <rect x="840" y="465" width="160" height="8" rx="3" fill="#7da9ff" opacity="0.3"/>
  <rect x="840" y="480" width="100" height="8" rx="3" fill="#475569"/>
  <rect x="840" y="500" width="180" height="8" rx="3" fill="#7da9ff" opacity="0.3"/>

  <text x="600" y="640" font-family="Inter, sans-serif" font-size="22" font-weight="700" fill="#ffd86b" text-anchor="middle">In Gold We Trust · markdown for AI</text>
</svg>
