<svg width="1200" height="675" viewBox="0 0 1200 675" fill="none" xmlns="http://www.w3.org/2000/svg">
  <rect width="1200" height="675" fill="#08111f"/>
  <circle cx="185" cy="145" r="250" fill="#4f8cff" opacity="0.16"/>
  <circle cx="990" cy="520" r="260" fill="#f5b301" opacity="0.14"/>
  <rect x="145" y="118" width="910" height="440" rx="32" fill="#0e1830" stroke="#26365f" stroke-width="3"/>
  <rect x="215" y="210" width="770" height="54" rx="12" fill="#17243f"/>
  <rect x="215" y="310" width="770" height="54" rx="12" fill="#17243f"/>
  <rect x="215" y="410" width="770" height="54" rx="12" fill="#17243f"/>
  <rect x="250" y="170" width="66" height="300" rx="8" fill="#f5b301"/>
  <rect x="342" y="188" width="66" height="282" rx="8" fill="#4f8cff"/>
  <rect x="434" y="153" width="66" height="317" rx="8" fill="#7da9ff"/>
  <rect x="526" y="202" width="66" height="268" rx="8" fill="#ffd44d"/>
  <rect x="618" y="178" width="66" height="292" rx="8" fill="#e7ecf6"/>
  <rect x="710" y="222" width="66" height="248" rx="8" fill="#4f8cff"/>
  <rect x="802" y="160" width="66" height="310" rx="8" fill="#f5b301"/>
  <rect x="894" y="195" width="66" height="275" rx="8" fill="#a9b3cc"/>
  <path d="M276 211H290M276 246H290M276 281H290" stroke="#1a1300" stroke-width="8" stroke-linecap="round" opacity="0.55"/>
  <path d="M368 235H382M368 270H382M368 305H382" stroke="#071021" stroke-width="8" stroke-linecap="round" opacity="0.45"/>
  <path d="M460 205H474M460 240H474M460 275H474" stroke="#071021" stroke-width="8" stroke-linecap="round" opacity="0.45"/>
  <path d="M552 250H566M552 285H566M552 320H566" stroke="#1a1300" stroke-width="8" stroke-linecap="round" opacity="0.42"/>
  <path d="M644 224H658M644 259H658M644 294H658" stroke="#071021" stroke-width="8" stroke-linecap="round" opacity="0.35"/>
  <path d="M736 268H750M736 303H750M736 338H750" stroke="#071021" stroke-width="8" stroke-linecap="round" opacity="0.42"/>
  <path d="M828 212H842M828 247H842M828 282H842" stroke="#1a1300" stroke-width="8" stroke-linecap="round" opacity="0.55"/>
  <path d="M920 242H934M920 277H934M920 312H934" stroke="#071021" stroke-width="8" stroke-linecap="round" opacity="0.35"/>
  <path d="M220 510H980" stroke="#f5b301" stroke-width="6" stroke-linecap="round"/>
  <path d="M340 545C412 520 486 520 558 545C630 520 704 520 776 545" stroke="#7da9ff" stroke-width="7" stroke-linecap="round"/>
</svg>